<?xml version="1.0" encoding="UTF-8" standalone="no"?><!DOCTYPE svg PUBLIC "-//W3C//DTD SVG 1.1//EN" "http://www.w3.org/Graphics/SVG/1.1/DTD/svg11.dtd"><svg width="100%" height="100%" viewBox="0 0 1920 1080" version="1.1" xmlns="http://www.w3.org/2000/svg" xmlns:xlink="http://www.w3.org/1999/xlink" xml:space="preserve" xmlns:serif="http://www.serif.com/" style="fill-rule:evenodd;clip-rule:evenodd;stroke-linecap:round;stroke-linejoin:round;stroke-miterlimit:1.5;"><g><path d="M1920,928.601c113.174,-264.194 341.141,-739.213 670.815,-394.579c250.519,261.887 324.584,-44.795 479.676,-310.66c94.169,-161.429 551.016,-166.282 637.303,-4.763" style="fill:none;stroke:url(#_Linear1);stroke-width:1px;"/><path d="M1820,938.601c113.174,-264.194 341.141,-739.213 670.815,-394.579c250.519,261.887 324.584,-44.795 479.676,-310.66c94.169,-161.429 551.016,-166.282 637.303,-4.763" style="fill:none;stroke:url(#_Linear2);stroke-width:1px;"/><path d="M1720,948.601c113.174,-264.194 341.141,-739.213 670.815,-394.579c250.519,261.887 324.584,-44.795 479.676,-310.66c94.169,-161.429 551.016,-166.282 637.303,-4.763" style="fill:none;stroke:url(#_Linear3);stroke-width:1px;"/><path d="M1620,958.601c113.174,-264.194 341.141,-739.213 670.815,-394.579c250.519,261.887 324.584,-44.795 479.676,-310.66c94.169,-161.429 551.016,-166.282 637.303,-4.763" style="fill:none;stroke:url(#_Linear4);stroke-width:1px;"/><path d="M1520,968.601c113.174,-264.194 341.141,-739.213 670.815,-394.579c250.519,261.887 324.584,-44.795 479.676,-310.66c94.169,-161.429 551.016,-166.282 637.303,-4.763" style="fill:none;stroke:url(#_Linear5);stroke-width:1px;"/><path d="M1420,978.601c113.174,-264.194 341.141,-739.213 670.815,-394.579c250.519,261.887 324.584,-44.795 479.676,-310.66c94.169,-161.429 551.016,-166.282 637.303,-4.763" style="fill:none;stroke:url(#_Linear6);stroke-width:1px;"/><path d="M1320,988.601c113.174,-264.194 341.141,-739.213 670.815,-394.579c250.519,261.887 324.584,-44.795 479.676,-310.66c94.169,-161.429 551.016,-166.282 637.303,-4.763" style="fill:none;stroke:url(#_Linear7);stroke-width:1px;"/><path d="M1220,998.601c113.174,-264.194 341.141,-739.213 670.815,-394.579c250.519,261.887 324.584,-44.795 479.676,-310.66c94.169,-161.429 551.016,-166.282 637.303,-4.763" style="fill:none;stroke:url(#_Linear8);stroke-width:1px;"/><path d="M1120,1008.6c113.174,-264.194 341.141,-739.213 670.815,-394.579c250.519,261.887 324.584,-44.795 479.676,-310.66c94.169,-161.429 551.016,-166.282 637.303,-4.763" style="fill:none;stroke:url(#_Linear9);stroke-width:1px;"/><path d="M1020,1018.6c113.174,-264.194 341.141,-739.213 670.815,-394.579c250.519,261.887 324.584,-44.795 479.676,-310.66c94.169,-161.429 551.016,-166.282 637.303,-4.763" style="fill:none;stroke:url(#_Linear10);stroke-width:1px;"/><path d="M920,1028.6c113.174,-264.194 341.141,-739.213 670.815,-394.579c250.519,261.887 324.584,-44.795 479.676,-310.66c94.169,-161.429 551.016,-166.282 637.303,-4.763" style="fill:none;stroke:url(#_Linear11);stroke-width:1px;"/><path d="M820,1038.6c113.174,-264.194 341.141,-739.213 670.815,-394.579c250.519,261.887 324.584,-44.795 479.676,-310.66c94.169,-161.429 551.016,-166.282 637.303,-4.763" style="fill:none;stroke:url(#_Linear12);stroke-width:1px;"/><path d="M720,1048.6c113.174,-264.194 341.141,-739.213 670.815,-394.579c250.519,261.887 324.584,-44.795 479.676,-310.66c94.169,-161.429 551.016,-166.282 637.303,-4.763" style="fill:none;stroke:url(#_Linear13);stroke-width:1px;"/><path d="M620,1058.6c113.174,-264.194 341.141,-739.213 670.815,-394.579c250.519,261.887 324.584,-44.795 479.676,-310.66c94.169,-161.429 551.016,-166.282 637.303,-4.763" style="fill:none;stroke:url(#_Linear14);stroke-width:1px;"/><path d="M520,1068.6c113.174,-264.194 341.141,-739.213 670.815,-394.579c250.519,261.887 324.584,-44.795 479.676,-310.66c94.169,-161.429 551.016,-166.282 637.303,-4.763" style="fill:none;stroke:url(#_Linear15);stroke-width:1px;"/><path d="M420,1078.6c113.174,-264.194 341.141,-739.213 670.815,-394.579c250.519,261.887 324.584,-44.795 479.676,-310.66c94.169,-161.429 551.016,-166.282 637.303,-4.763" style="fill:none;stroke:url(#_Linear16);stroke-width:1px;"/><path d="M320,1088.6c113.174,-264.194 341.141,-739.213 670.815,-394.579c250.519,261.887 324.584,-44.795 479.676,-310.66c94.169,-161.429 551.016,-166.282 637.303,-4.763" style="fill:none;stroke:url(#_Linear17);stroke-width:1px;"/><path d="M220,1098.6c113.174,-264.194 341.141,-739.213 670.815,-394.579c250.519,261.887 324.584,-44.795 479.676,-310.66c94.169,-161.429 551.016,-166.282 637.303,-4.763" style="fill:none;stroke:url(#_Linear18);stroke-width:1px;"/><path d="M120,1108.6c113.174,-264.194 341.141,-739.213 670.815,-394.579c250.519,261.887 324.584,-44.795 479.676,-310.66c94.169,-161.429 551.016,-166.282 637.303,-4.763" style="fill:none;stroke:url(#_Linear19);stroke-width:1px;"/><path d="M20,1118.6c113.174,-264.194 341.141,-739.213 670.815,-394.579c250.519,261.887 324.584,-44.795 479.676,-310.66c94.169,-161.429 551.016,-166.282 637.303,-4.763" style="fill:none;stroke:url(#_Linear20);stroke-width:1px;"/></g><defs><linearGradient id="_Linear1" x1="0" y1="0" x2="1" y2="0" gradientUnits="userSpaceOnUse" gradientTransform="matrix(572.985,0,0,225.599,2017.83,627.47)"><stop offset="0" style="stop-color:#ff00f9;stop-opacity:1"/><stop offset="0.63" style="stop-color:#f300f5;stop-opacity:1"/><stop offset="0.81" style="stop-color:#d000e9;stop-opacity:1"/><stop offset="0.95" style="stop-color:#a400db;stop-opacity:1"/><stop offset="1" style="stop-color:#5500c1;stop-opacity:1"/></linearGradient><linearGradient id="_Linear2" x1="0" y1="0" x2="1" y2="0" gradientUnits="userSpaceOnUse" gradientTransform="matrix(572.985,0,0,225.599,1917.83,637.47)"><stop offset="0" style="stop-color:#ff00f9;stop-opacity:1"/><stop offset="0.63" style="stop-color:#f300f5;stop-opacity:1"/><stop offset="0.81" style="stop-color:#d000e9;stop-opacity:1"/><stop offset="0.95" style="stop-color:#a400db;stop-opacity:1"/><stop offset="1" style="stop-color:#5500c1;stop-opacity:1"/></linearGradient><linearGradient id="_Linear3" x1="0" y1="0" x2="1" y2="0" gradientUnits="userSpaceOnUse" gradientTransform="matrix(572.985,0,0,225.599,1817.83,647.47)"><stop offset="0" style="stop-color:#ff00f9;stop-opacity:1"/><stop offset="0.63" style="stop-color:#f300f5;stop-opacity:1"/><stop offset="0.81" style="stop-color:#d000e9;stop-opacity:1"/><stop offset="0.95" style="stop-color:#a400db;stop-opacity:1"/><stop offset="1" style="stop-color:#5500c1;stop-opacity:1"/></linearGradient><linearGradient id="_Linear4" x1="0" y1="0" x2="1" y2="0" gradientUnits="userSpaceOnUse" gradientTransform="matrix(572.985,0,0,225.599,1717.83,657.47)"><stop offset="0" style="stop-color:#ff00f9;stop-opacity:1"/><stop offset="0.63" style="stop-color:#f300f5;stop-opacity:1"/><stop offset="0.81" style="stop-color:#d000e9;stop-opacity:1"/><stop offset="0.95" style="stop-color:#a400db;stop-opacity:1"/><stop offset="1" style="stop-color:#5500c1;stop-opacity:1"/></linearGradient><linearGradient id="_Linear5" x1="0" y1="0" x2="1" y2="0" gradientUnits="userSpaceOnUse" gradientTransform="matrix(572.985,0,0,225.599,1617.83,667.47)"><stop offset="0" style="stop-color:#ff00f9;stop-opacity:1"/><stop offset="0.63" style="stop-color:#f300f5;stop-opacity:1"/><stop offset="0.81" style="stop-color:#d000e9;stop-opacity:1"/><stop offset="0.95" style="stop-color:#a400db;stop-opacity:1"/><stop offset="1" style="stop-color:#5500c1;stop-opacity:1"/></linearGradient><linearGradient id="_Linear6" x1="0" y1="0" x2="1" y2="0" gradientUnits="userSpaceOnUse" gradientTransform="matrix(572.985,0,0,225.599,1517.83,677.47)"><stop offset="0" style="stop-color:#ff00f9;stop-opacity:1"/><stop offset="0.63" style="stop-color:#f300f5;stop-opacity:1"/><stop offset="0.81" style="stop-color:#d000e9;stop-opacity:1"/><stop offset="0.95" style="stop-color:#a400db;stop-opacity:1"/><stop offset="1" style="stop-color:#5500c1;stop-opacity:1"/></linearGradient><linearGradient id="_Linear7" x1="0" y1="0" x2="1" y2="0" gradientUnits="userSpaceOnUse" gradientTransform="matrix(572.985,0,0,225.599,1417.83,687.47)"><stop offset="0" style="stop-color:#ff00f9;stop-opacity:1"/><stop offset="0.63" style="stop-color:#f300f5;stop-opacity:1"/><stop offset="0.81" style="stop-color:#d000e9;stop-opacity:1"/><stop offset="0.95" style="stop-color:#a400db;stop-opacity:1"/><stop offset="1" style="stop-color:#5500c1;stop-opacity:1"/></linearGradient><linearGradient id="_Linear8" x1="0" y1="0" x2="1" y2="0" gradientUnits="userSpaceOnUse" gradientTransform="matrix(572.985,0,0,225.599,1317.83,697.47)"><stop offset="0" style="stop-color:#ff00f9;stop-opacity:1"/><stop offset="0.63" style="stop-color:#f300f5;stop-opacity:1"/><stop offset="0.81" style="stop-color:#d000e9;stop-opacity:1"/><stop offset="0.95" style="stop-color:#a400db;stop-opacity:1"/><stop offset="1" style="stop-color:#5500c1;stop-opacity:1"/></linearGradient><linearGradient id="_Linear9" x1="0" y1="0" x2="1" y2="0" gradientUnits="userSpaceOnUse" gradientTransform="matrix(572.985,0,0,225.599,1217.83,707.47)"><stop offset="0" style="stop-color:#ff00f9;stop-opacity:1"/><stop offset="0.63" style="stop-color:#f300f5;stop-opacity:1"/><stop offset="0.81" style="stop-color:#d000e9;stop-opacity:1"/><stop offset="0.95" style="stop-color:#a400db;stop-opacity:1"/><stop offset="1" style="stop-color:#5500c1;stop-opacity:1"/></linearGradient><linearGradient id="_Linear10" x1="0" y1="0" x2="1" y2="0" gradientUnits="userSpaceOnUse" gradientTransform="matrix(572.985,0,0,225.599,1117.83,717.47)"><stop offset="0" style="stop-color:#ff00f9;stop-opacity:1"/><stop offset="0.63" style="stop-color:#f300f5;stop-opacity:1"/><stop offset="0.81" style="stop-color:#d000e9;stop-opacity:1"/><stop offset="0.95" style="stop-color:#a400db;stop-opacity:1"/><stop offset="1" style="stop-color:#5500c1;stop-opacity:1"/></linearGradient><linearGradient id="_Linear11" x1="0" y1="0" x2="1" y2="0" gradientUnits="userSpaceOnUse" gradientTransform="matrix(572.985,0,0,225.599,1017.83,727.47)"><stop offset="0" style="stop-color:#ff00f9;stop-opacity:1"/><stop offset="0.63" style="stop-color:#f300f5;stop-opacity:1"/><stop offset="0.81" style="stop-color:#d000e9;stop-opacity:1"/><stop offset="0.95" style="stop-color:#a400db;stop-opacity:1"/><stop offset="1" style="stop-color:#5500c1;stop-opacity:1"/></linearGradient><linearGradient id="_Linear12" x1="0" y1="0" x2="1" y2="0" gradientUnits="userSpaceOnUse" gradientTransform="matrix(572.985,0,0,225.599,917.83,737.47)"><stop offset="0" style="stop-color:#ff00f9;stop-opacity:1"/><stop offset="0.63" style="stop-color:#f300f5;stop-opacity:1"/><stop offset="0.81" style="stop-color:#d000e9;stop-opacity:1"/><stop offset="0.95" style="stop-color:#a400db;stop-opacity:1"/><stop offset="1" style="stop-color:#5500c1;stop-opacity:1"/></linearGradient><linearGradient id="_Linear13" x1="0" y1="0" x2="1" y2="0" gradientUnits="userSpaceOnUse" gradientTransform="matrix(572.985,0,0,225.599,817.83,747.47)"><stop offset="0" style="stop-color:#ff00f9;stop-opacity:1"/><stop offset="0.63" style="stop-color:#f300f5;stop-opacity:1"/><stop offset="0.81" style="stop-color:#d000e9;stop-opacity:1"/><stop offset="0.95" style="stop-color:#a400db;stop-opacity:1"/><stop offset="1" style="stop-color:#5500c1;stop-opacity:1"/></linearGradient><linearGradient id="_Linear14" x1="0" y1="0" x2="1" y2="0" gradientUnits="userSpaceOnUse" gradientTransform="matrix(572.985,0,0,225.599,717.83,757.47)"><stop offset="0" style="stop-color:#ff00f9;stop-opacity:1"/><stop offset="0.63" style="stop-color:#f300f5;stop-opacity:1"/><stop offset="0.81" style="stop-color:#d000e9;stop-opacity:1"/><stop offset="0.95" style="stop-color:#a400db;stop-opacity:1"/><stop offset="1" style="stop-color:#5500c1;stop-opacity:1"/></linearGradient><linearGradient id="_Linear15" x1="0" y1="0" x2="1" y2="0" gradientUnits="userSpaceOnUse" gradientTransform="matrix(572.985,0,0,225.599,617.83,767.47)"><stop offset="0" style="stop-color:#ff00f9;stop-opacity:1"/><stop offset="0.63" style="stop-color:#f300f5;stop-opacity:1"/><stop offset="0.81" style="stop-color:#d000e9;stop-opacity:1"/><stop offset="0.95" style="stop-color:#a400db;stop-opacity:1"/><stop offset="1" style="stop-color:#5500c1;stop-opacity:1"/></linearGradient><linearGradient id="_Linear16" x1="0" y1="0" x2="1" y2="0" gradientUnits="userSpaceOnUse" gradientTransform="matrix(572.985,0,0,225.599,517.83,777.47)"><stop offset="0" style="stop-color:#ff00f9;stop-opacity:1"/><stop offset="0.63" style="stop-color:#f300f5;stop-opacity:1"/><stop offset="0.81" style="stop-color:#d000e9;stop-opacity:1"/><stop offset="0.95" style="stop-color:#a400db;stop-opacity:1"/><stop offset="1" style="stop-color:#5500c1;stop-opacity:1"/></linearGradient><linearGradient id="_Linear17" x1="0" y1="0" x2="1" y2="0" gradientUnits="userSpaceOnUse" gradientTransform="matrix(572.985,0,0,225.599,417.83,787.47)"><stop offset="0" style="stop-color:#ff00f9;stop-opacity:1"/><stop offset="0.63" style="stop-color:#f300f5;stop-opacity:1"/><stop offset="0.81" style="stop-color:#d000e9;stop-opacity:1"/><stop offset="0.95" style="stop-color:#a400db;stop-opacity:1"/><stop offset="1" style="stop-color:#5500c1;stop-opacity:1"/></linearGradient><linearGradient id="_Linear18" x1="0" y1="0" x2="1" y2="0" gradientUnits="userSpaceOnUse" gradientTransform="matrix(572.985,0,0,225.599,317.83,797.47)"><stop offset="0" style="stop-color:#ff00f9;stop-opacity:1"/><stop offset="0.63" style="stop-color:#f300f5;stop-opacity:1"/><stop offset="0.81" style="stop-color:#d000e9;stop-opacity:1"/><stop offset="0.95" style="stop-color:#a400db;stop-opacity:1"/><stop offset="1" style="stop-color:#5500c1;stop-opacity:1"/></linearGradient><linearGradient id="_Linear19" x1="0" y1="0" x2="1" y2="0" gradientUnits="userSpaceOnUse" gradientTransform="matrix(572.985,0,0,225.599,217.83,807.47)"><stop offset="0" style="stop-color:#ff00f9;stop-opacity:1"/><stop offset="0.63" style="stop-color:#f300f5;stop-opacity:1"/><stop offset="0.81" style="stop-color:#d000e9;stop-opacity:1"/><stop offset="0.95" style="stop-color:#a400db;stop-opacity:1"/><stop offset="1" style="stop-color:#5500c1;stop-opacity:1"/></linearGradient><linearGradient id="_Linear20" x1="0" y1="0" x2="1" y2="0" gradientUnits="userSpaceOnUse" gradientTransform="matrix(572.985,0,0,225.599,117.83,817.47)"><stop offset="0" style="stop-color:#ff00f9;stop-opacity:1"/><stop offset="0.63" style="stop-color:#f300f5;stop-opacity:1"/><stop offset="0.81" style="stop-color:#d000e9;stop-opacity:1"/><stop offset="0.95" style="stop-color:#a400db;stop-opacity:1"/><stop offset="1" style="stop-color:#5500c1;stop-opacity:1"/></linearGradient></defs></svg>