<svg xmlns="http://www.w3.org/2000/svg" xml:space="preserve" fill-rule="evenodd" stroke-linejoin="round" stroke-miterlimit="2" clip-rule="evenodd" viewBox="0 0 548 207"><path fill="#fff" fill-rule="nonzero" d="M226.7 127.1h-58.8v-2h58.8v2Zm-169.6-2v2H0v-2h57Zm169.6-6.9h-58.8v-7h58.8v7Zm0-13.9h-58.8v-7h58.8v7ZM119.6 90.4h-14l-8.3-7h30.5l-8.2 7Zm107 0H168v-7h58.8v7ZM136 76.5H89l-8.1-7h63.3l-8.2 7Zm90.7 0h-58.8v-7h58.8v7Zm-74.3-13.9H72.6l-8.2-7h96.2l-8.2 7Zm74.3 0h-58.8v-7h58.8v7Zm0-27.8H123.5l8.3-7h94.9v7Zm0-14H140l8.3-6.9h78.3v7Zm0-13.8h-70l8.4-7h61.6v7ZM0 111.3h57v7H0v-7Zm0-14h57v7H0v-7Zm0-13.8h57v7H0v-7Zm0-14h57v7H0v-7Zm0-13.9h57v7H0v-7Zm0-13.9v7h226.7v-7H115l-1.9 1.6-2-1.6H0Zm0-13.9h94.7l8.3 7H0v-7ZM0 14h78.1l8.3 7H0v-7ZM0 0h61.6l8.3 7H0V0Z"/><path fill="#9d9d9d" fill-rule="nonzero" d="M270.4 9.6c0-2.6-.3-4.4-.8-5.5a2.7 2.7 0 0 0-2.6-1.7c-1.2 0-2 .6-2.6 1.7-.5 1-.8 2.9-.8 5.5 0 2.5.3 4.4.8 5.5a2.7 2.7 0 0 0 2.6 1.6c1.2 0 2-.5 2.6-1.6.5-1.1.8-3 .8-5.5Zm2.5 0c0 3-.5 5.3-1.5 6.8a4.9 4.9 0 0 1-4.4 2.2c-2 0-3.4-.7-4.4-2.2-1-1.5-1.4-3.8-1.4-6.8s.4-5.4 1.4-6.8c1-1.6 2.4-2.3 4.4-2.3 2 0 3.4.7 4.4 2.3 1 1.4 1.5 3.7 1.5 6.8Zm1.6-8.7h3.2l6.8 14.3V1h2.6v17.4h-3.3L277 4v14.3h-2.5V1Zm16.7-.1h2.4v15.5h8.4v2h-10.8V.8Zm12.4 0h2.5l4.3 7.7 4.2-7.7h2.6l-5.7 9.7v7.8h-2.3v-7.8L303.6.8Zm41 16.9-1.8.7a8 8 0 0 1-2 .2c-2.3 0-4-.8-5.3-2.3a10.7 10.7 0 0 1-1.8-6.7c0-2.9.6-5.1 1.8-6.7 1.3-1.6 3-2.4 5.2-2.4a8 8 0 0 1 4 1v2.4a6.1 6.1 0 0 0-4-1.5c-1.5 0-2.6.6-3.4 1.8a10 10 0 0 0-1.2 5.4c0 2.4.4 4.1 1.2 5.3a4 4 0 0 0 3.4 1.8c.7 0 1.4-.1 2-.4a6 6 0 0 0 2-1v2.4Zm14.4 0-1.8.7a8 8 0 0 1-2 .2c-2.3 0-4-.8-5.2-2.3a10.7 10.7 0 0 1-1.9-6.7c0-2.9.6-5.1 1.9-6.7 1.2-1.6 3-2.4 5.2-2.4a8 8 0 0 1 3.9 1v2.4a6.1 6.1 0 0 0-3.9-1.5 4 4 0 0 0-3.5 1.8 10 10 0 0 0-1.1 5.4c0 2.4.4 4.1 1.1 5.3a4 4 0 0 0 3.5 1.8c.7 0 1.4-.1 2-.4a6 6 0 0 0 1.9-1v2.4ZM363.4.8h8.8v2h-6.7v4.3l1-.3a5 5 0 0 1 1 0c1.9 0 3.3.5 4.4 1.5a6 6 0 0 1 1.6 4.4 6 6 0 0 1-1.7 4.4 6.3 6.3 0 0 1-4.6 1.5 13.9 13.9 0 0 1-4.6-.7v-2.4a8.6 8.6 0 0 0 4.4 1.2c1.3 0 2.3-.4 3-1 .7-.8 1-1.7 1-3s-.3-2.2-1-3c-.7-.6-1.8-1-3-1a8 8 0 0 0-3.6.9V.8ZM384.5 9a5 5 0 0 1 2.6 1.6c.6.7 1 1.7 1 2.9 0 1.6-.6 2.9-1.7 3.8-1 .9-2.6 1.3-4.5 1.3a14.5 14.5 0 0 1-5-.8v-2.4a11 11 0 0 0 4.7 1.2c1.3 0 2.4-.2 3-.8.7-.6 1-1.5 1-2.6a3 3 0 0 0-1-2.4c-.6-.6-1.6-.9-2.8-.9H380V8h1.8c1.1 0 2-.2 2.6-.6.6-.5.9-1.2.9-2 0-1-.3-1.6-.9-2-.5-.6-1.4-.8-2.4-.8-.7 0-1.4 0-2.2.2l-2.3.7V1.2a29 29 0 0 1 4.5-.7c1.7 0 3 .4 4 1.3a4 4 0 0 1 1.6 3.4c0 1-.2 1.8-.8 2.4-.5.6-1.3 1-2.3 1.3Zm7.7-.3h12v2.4h-12zm24.7 9-1.9.7a8 8 0 0 1-2 .2c-2.3 0-4-.8-5.2-2.3a10.7 10.7 0 0 1-1.9-6.7c0-2.9.6-5.1 1.9-6.7 1.2-1.6 3-2.4 5.2-2.4a8 8 0 0 1 3.9 1v2.4a6.1 6.1 0 0 0-4-1.5 4 4 0 0 0-3.4 1.8 10 10 0 0 0-1.1 5.4c0 2.4.4 4.1 1.1 5.3a4 4 0 0 0 3.5 1.8c.7 0 1.4-.1 2-.4a6 6 0 0 0 1.9-1v2.4ZM421 .8h10.4v2h-8v4.7h7.7v2h-7.7v6.8h8.2v2H421V.8Zm21 9.2a3 3 0 0 1 1.6 1c.5.4 1 1.2 1.7 2.5l2.3 4.8h-2.5L443 14a7 7 0 0 0-1.6-2.4 3 3 0 0 0-2-.6h-2.2v7.4H435V.8h4.8c2 0 3.4.4 4.4 1.3 1 .9 1.6 2.1 1.6 3.8a4 4 0 0 1-1 2.8c-.6.7-1.5 1.2-2.6 1.3Zm-4.8-7.2V9h2.6c1.2 0 2-.3 2.5-.8.6-.5.9-1.3.9-2.3 0-1-.3-1.8-.9-2.4-.6-.5-1.4-.7-2.6-.7h-2.5Zm11-2h13.3v2h-5.4v15.5h-2.4V2.8h-5.5v-2Zm16.2 0h9.8v2h-3.7v13.5h3.7v2h-9.8v-2h3.7V2.8h-3.7v-2Zm14.9 0h10.3v2h-8v4.7h7.2v2h-7.2v8.8h-2.3V.8Zm14 0h9.7v2h-3.6v13.5h3.6v2h-9.7v-2h3.7V2.8h-3.7v-2Zm14.4 0h10.4v2h-8v4.7h7.7v2H510v6.8h8.2v2h-10.6V.8ZM525 16.4c2 0 3.4-.5 4.2-1.5.8-1 1.1-2.8 1.1-5.3 0-2.6-.3-4.4-1.1-5.4S527 2.8 525 2.8h-1.1v13.6h1Zm0-15.6c2.7 0 4.7.7 6 2.1 1.2 1.5 1.8 3.7 1.8 6.7s-.6 5.2-1.9 6.6c-1.2 1.4-3.2 2.1-5.9 2.1h-3.5V.8h3.5ZM267 40.3l-2.5 9h5l-2.5-9Zm-1.4-2h2.9l5.3 17.4h-2.4l-1.3-4.6h-6.2l-1.2 4.6h-2.5l5.4-17.5Zm8.9 0h3.2l6.8 14.3V38.3h2.6v17.4h-3.3L277 41.4v14.3h-2.5V38.3Zm19.3 15.5c2 0 3.4-.5 4.2-1.5.8-1 1.2-2.8 1.2-5.3 0-2.6-.4-4.4-1.2-5.4-.8-1-2.2-1.4-4.2-1.4h-1.1v13.6h1.1Zm0-15.6c2.7 0 4.7.7 6 2.1 1.2 1.5 1.8 3.7 1.8 6.7s-.6 5.2-1.8 6.6c-1.3 1.4-3.3 2.1-6 2.1h-3.5V38.2h3.5Zm28.9 15.6c2 0 3.4-.5 4.2-1.5.8-1 1.2-2.8 1.2-5.3 0-2.6-.4-4.4-1.2-5.4-.8-1-2.2-1.4-4.2-1.4h-1.1v13.6h1.1Zm0-15.6c2.7 0 4.7.7 6 2.1 1.2 1.5 1.8 3.7 1.8 6.7s-.6 5.2-1.8 6.6c-1.3 1.4-3.3 2.1-6 2.1h-3.5V38.2h3.5Zm10.9 0h2.4V45h6.5v-6.7h2.4v17.5h-2.4V47H336v8.8h-2.4V38.2Zm24.7.6v2.4a10 10 0 0 0-2.1-1c-.7-.3-1.5-.4-2.2-.4a4 4 0 0 0-2.6.8c-.7.5-1 1.2-1 2.1 0 .8.2 1.4.6 1.8.4.4 1.2.7 2.4 1l1.2.3c1.7.4 2.9 1 3.6 1.8.8.8 1.1 2 1.1 3.3 0 1.7-.5 3-1.5 3.8-1 1-2.5 1.3-4.5 1.3a12.6 12.6 0 0 1-5-1v-2.5c1 .5 1.8 1 2.6 1.2.8.3 1.6.4 2.4.4 1.2 0 2.1-.2 2.8-.8.7-.5 1-1.3 1-2.2 0-.9-.2-1.6-.7-2-.5-.5-1.3-.8-2.4-1.1l-1.3-.3a7 7 0 0 1-3.5-1.6 4 4 0 0 1-1-3c0-1.6.4-2.9 1.5-3.8a6 6 0 0 1 4.2-1.4c.6 0 1.4 0 2 .2l2.4.7Zm5.4-.6H374v2h-8v4.7h7.2v2H366v8.8h-2.3V38.2Zm28.6 0h8.8v2h-6.7v4.3l1-.3a5 5 0 0 1 1 0c1.9 0 3.3.5 4.4 1.5a6 6 0 0 1 1.6 4.4 6 6 0 0 1-1.7 4.4A6.3 6.3 0 0 1 396 56a13.9 13.9 0 0 1-4.6-.7v-2.4a8.6 8.6 0 0 0 4.4 1.2c1.3 0 2.3-.4 3-1 .7-.8 1-1.7 1-3s-.3-2.2-1-3c-.7-.6-1.8-1-3-1a8 8 0 0 0-3.6.9v-8.8Zm14.4 7.9h12v2.4h-12zm12.6-7.9h13.3v2h-5.4v15.5h-2.4V40.2h-5.5v-2Zm15.5 0h2.4V45h6.4v-6.7h2.4v17.5h-2.4V47h-6.4v8.8h-2.4V38.2ZM474.7 55c-.6.4-1.3.6-1.9.8a8 8 0 0 1-2 .2c-2.3 0-4-.8-5.2-2.3a10.7 10.7 0 0 1-1.9-6.7c0-2.9.6-5.1 1.9-6.7 1.2-1.6 3-2.4 5.2-2.4a8 8 0 0 1 3.9 1v2.4a6.1 6.1 0 0 0-4-1.5 4 4 0 0 0-3.4 1.8 10 10 0 0 0-1.1 5.4c0 2.4.4 4.1 1.1 5.3a4 4 0 0 0 3.5 1.8c.7 0 1.4-.1 2-.4a6 6 0 0 0 1.9-1V55Zm4.3-16.8h2.4v15.5h8.5v2H479V38.2Zm19.2 2.1-2.5 9h5l-2.5-9Zm-1.4-2h2.8l5.4 17.4h-2.5l-1.3-4.6h-6l-1.3 4.6h-2.5l5.4-17.5Zm20.5.5v2.4c-.7-.4-1.5-.8-2.2-1-.7-.3-1.4-.4-2.2-.4-1 0-2 .3-2.6.8-.6.5-1 1.2-1 2.1 0 .8.2 1.4.7 1.8.4.4 1.2.7 2.3 1l1.3.3c1.6.4 2.8 1 3.6 1.8.7.8 1 2 1 3.3 0 1.7-.4 3-1.4 3.8-1 1-2.6 1.3-4.6 1.3a12.6 12.6 0 0 1-5-1v-2.5c1 .5 1.8 1 2.6 1.2.8.3 1.6.4 2.4.4 1.2 0 2.2-.2 2.8-.8.7-.5 1-1.3 1-2.2 0-.9-.2-1.6-.7-2-.4-.5-1.2-.8-2.3-1.1l-1.3-.3a7 7 0 0 1-3.5-1.6 4 4 0 0 1-1.1-3c0-1.6.5-2.9 1.5-3.8a6 6 0 0 1 4.2-1.4c.7 0 1.4 0 2.1.2l2.4.7Zm14.4 0v2.4a10 10 0 0 0-2.1-1c-.7-.3-1.5-.4-2.2-.4-1.1 0-2 .3-2.7.8-.6.5-1 1.2-1 2.1 0 .8.3 1.4.7 1.8.4.4 1.2.7 2.4 1l1.2.3c1.7.4 2.9 1 3.6 1.8.8.8 1.1 2 1.1 3.3 0 1.7-.5 3-1.5 3.8-1 1-2.5 1.3-4.5 1.3a12.6 12.6 0 0 1-5-1v-2.5c1 .5 1.8 1 2.6 1.2.8.3 1.6.4 2.4.4 1.2 0 2.1-.2 2.8-.8.6-.5 1-1.3 1-2.2 0-.9-.3-1.6-.7-2-.5-.5-1.3-.8-2.4-1.1l-1.3-.3a7 7 0 0 1-3.5-1.6 4 4 0 0 1-1-3c0-1.6.4-2.9 1.5-3.8a6 6 0 0 1 4.2-1.4c.6 0 1.4 0 2 .2l2.4.7ZM270.4 84.4c0-2.6-.3-4.4-.8-5.5a2.7 2.7 0 0 0-2.6-1.7c-1.2 0-2 .6-2.6 1.7-.5 1-.8 2.9-.8 5.5 0 2.5.3 4.4.8 5.5a2.7 2.7 0 0 0 2.6 1.6c1.2 0 2-.5 2.6-1.6.5-1.1.8-3 .8-5.5Zm2.5 0c0 3-.5 5.3-1.5 6.8a4.9 4.9 0 0 1-4.4 2.2c-2 0-3.4-.7-4.4-2.2-1-1.5-1.4-3.8-1.4-6.8s.4-5.4 1.4-6.8c1-1.6 2.4-2.3 4.4-2.3 2 0 3.4.7 4.4 2.3 1 1.4 1.5 3.7 1.5 6.8Zm4.1-8.8h10.3v2h-8v4.7h7.2v2h-7.1V93H277V75.6Zm14.4 0h10.3v2h-7.9v4.7h7.2v2h-7.2V93h-2.4V75.6Zm14.1 0h9.7v2h-3.7v13.5h3.7v2h-9.7v-2h3.7V77.6h-3.7v-2Zm24.7 16.9-1.9.7a8 8 0 0 1-2 .2c-2.3 0-4-.8-5.2-2.3a10.7 10.7 0 0 1-1.9-6.7c0-2.9.6-5.1 1.9-6.7 1.2-1.6 3-2.4 5.2-2.4a8 8 0 0 1 3.9 1v2.4a6.1 6.1 0 0 0-3.9-1.5 4 4 0 0 0-3.5 1.8 10 10 0 0 0-1.1 5.4c0 2.4.4 4.1 1.1 5.3a4 4 0 0 0 3.5 1.8c.7 0 1.4-.1 2-.4a6 6 0 0 0 1.9-1v2.4Zm4.1-16.9h10.4v2h-8v4.7h7.7v2h-7.7v6.8h8.2v2h-10.6V75.6Zm21.1 9.2a3 3 0 0 1 1.5 1c.5.4 1 1.2 1.7 2.5l2.3 4.8h-2.5l-2.1-4.4a7 7 0 0 0-1.6-2.4 3 3 0 0 0-1.9-.6h-2.3v7.4h-2.3V75.6h4.8c2 0 3.4.4 4.5 1.3 1 .9 1.5 2.1 1.5 3.8a4 4 0 0 1-1 2.8c-.6.7-1.5 1.2-2.6 1.3Zm-4.9-7.2v6.2h2.6c1.2 0 2-.3 2.6-.8.5-.5.8-1.3.8-2.3 0-1-.3-1.8-.9-2.4-.6-.5-1.4-.7-2.6-.7h-2.5Zm22.3-1.4v2.4c-.7-.4-1.4-.8-2.2-1-.7-.3-1.4-.4-2.2-.4-1 0-2 .3-2.6.8-.6.5-1 1.2-1 2.1 0 .8.2 1.4.7 1.8.4.4 1.2.7 2.3 1l1.3.3c1.6.4 2.8 1 3.6 1.8a5 5 0 0 1 1.1 3.3c0 1.7-.5 3-1.5 3.8-1 1-2.6 1.3-4.5 1.3a12.6 12.6 0 0 1-5-1v-2.5c.9.5 1.7 1 2.5 1.2.8.3 1.6.4 2.5.4 1.2 0 2-.2 2.7-.8.7-.5 1-1.3 1-2.2 0-.9-.2-1.6-.7-2-.4-.5-1.2-.8-2.3-1.1l-1.3-.3a7 7 0 0 1-3.5-1.6 4 4 0 0 1-1.1-3c0-1.6.5-2.9 1.6-3.8a6 6 0 0 1 4.1-1.4c.7 0 1.4 0 2.1.2l2.4.7Zm24.2 1.5-2.4 9h5l-2.5-9Zm-1.4-2h2.9l5.3 17.4h-2.4l-1.3-4.6H394l-1.3 4.6h-2.4l5.3-17.5Zm17.6 9.1a3 3 0 0 1 1.5 1c.5.4 1 1.2 1.7 2.5l2.3 4.8h-2.5l-2.1-4.4a7 7 0 0 0-1.6-2.4 3 3 0 0 0-2-.6h-2.2v7.4H406V75.6h4.8c2 0 3.4.4 4.4 1.3 1 .9 1.6 2.1 1.6 3.8a4 4 0 0 1-1 2.8c-.6.7-1.5 1.2-2.6 1.3Zm-4.9-7.2v6.2h2.6c1.2 0 2-.3 2.6-.8.5-.5.8-1.3.8-2.3 0-1-.3-1.8-.9-2.4-.6-.5-1.4-.7-2.6-.7h-2.5Zm12.7-2h10.4v2h-8v4.7h7.7v2h-7.7v6.8h8.2v2H421V75.6Zm33.9 2.1-2.5 9h5l-2.5-9Zm-1.5-2h2.9l5.3 17.4h-2.4l-1.3-4.6h-6.1l-1.3 4.6h-2.4l5.3-17.5Zm11.2-.1h2.4v15.5h8.4v2h-10.8V75.6Zm14.4 0h2.4v15.5h8.5v2H479V75.6Zm22.6 8.8c0-2.6-.3-4.4-.8-5.5a2.7 2.7 0 0 0-2.6-1.7c-1.2 0-2 .6-2.6 1.7-.5 1-.8 2.9-.8 5.5 0 2.5.3 4.4.8 5.5a2.7 2.7 0 0 0 2.6 1.6c1.2 0 2-.5 2.6-1.6.5-1.1.8-3 .8-5.5Zm2.5 0c0 3-.5 5.3-1.5 6.8a4.9 4.9 0 0 1-4.4 2.2c-2 0-3.5-.7-4.4-2.2-1-1.5-1.5-3.8-1.5-6.8s.5-5.4 1.5-6.8c1-1.6 2.4-2.3 4.4-2.3 2 0 3.4.7 4.4 2.3 1 1.4 1.5 3.7 1.5 6.8Zm1.3-8.8h2.3l1.7 14.2 2-9.4h2.5l2 9.4 1.7-14.2h2.3l-2.6 17.5H515l-2.3-10.4-2.4 10.4H508l-2.6-17.5Zm16.8 0h10.4v2h-8v4.7h7.6v2h-7.6v6.8h8.2v2h-10.6V75.6Zm17.2 15.6c2 0 3.4-.5 4.2-1.5.8-1 1.2-2.8 1.2-5.3 0-2.6-.4-4.4-1.2-5.4-.8-1-2.2-1.4-4.2-1.4h-1v13.6h1Zm0-15.6c2.7 0 4.7.7 6 2.1 1.3 1.5 1.9 3.7 1.9 6.7s-.6 5.2-2 6.6c-1.2 1.4-3.2 2.1-5.8 2.1h-3.6V75.6h3.6ZM260.3 113h13.4v2h-5.5v15.5h-2.4V115h-5.5v-2Zm24.5 8.8c0-2.6-.2-4.4-.7-5.5a2.7 2.7 0 0 0-2.6-1.7c-1.2 0-2.1.6-2.6 1.7-.6 1-.8 2.9-.8 5.5 0 2.5.2 4.4.8 5.5a2.7 2.7 0 0 0 2.6 1.6c1.2 0 2-.5 2.6-1.6.5-1.1.7-3 .7-5.5Zm2.5 0c0 3-.5 5.3-1.4 6.8a4.9 4.9 0 0 1-4.4 2.2c-2 0-3.5-.7-4.5-2.2-1-1.5-1.4-3.8-1.4-6.8s.5-5.4 1.4-6.8c1-1.6 2.5-2.3 4.5-2.3s3.4.7 4.4 2.3c1 1.4 1.4 3.7 1.4 6.8Zm16.3-8.8h3.1l3 9 3-9h3.3v17.5h-2.2v-15.4l-3.2 9.2H309l-3.2-9.2v15.4h-2.1v-17.4Zm21.2 2.1-2.5 9h5l-2.5-9Zm-1.4-2h2.9l5.3 17.4h-2.4l-1.3-4.6h-6.2l-1.2 4.6H318l5.4-17.5Zm8.9-.1h3.2l6.8 14.4v-14.3h2.6v17.4h-3.3l-6.8-14.3v14.3h-2.5v-17.4Zm16.5 0h9.8v2h-3.7v13.5h3.7v2h-9.8v-2h3.7V115h-3.7v-2Zm16.8 2v6.5h2.8a4 4 0 0 0 2.5-.8c.6-.6 1-1.4 1-2.5 0-1-.4-1.8-1-2.4-.6-.6-1.4-.8-2.5-.8h-2.8Zm-2.4-2h5.2c1.9 0 3.4.4 4.4 1.3 1 1 1.5 2.2 1.5 4 0 1.7-.5 3-1.5 3.9a7 7 0 0 1-4.4 1.3h-2.8v7h-2.4V113Zm13.9 10.8V113h2.4v13.7l.3.8c.2.5.6.8 1 1 .6.3 1.1.4 1.8.4s1.3-.1 1.7-.3c.5-.3.9-.6 1.1-1l.3-1V113h2.4v10.8c0 1.8-.1 3-.3 3.8-.2.8-.6 1.4-1.2 1.9a5 5 0 0 1-1.8 1 7.3 7.3 0 0 1-4.4 0 5 5 0 0 1-1.8-1c-.6-.5-1-1.1-1.2-1.9-.2-.8-.3-2-.3-3.8Zm15.3-10.8h2.3v15.5h8.5v2h-10.8V113Zm19.1 2.1-2.5 9h5l-2.5-9Zm-1.4-2h2.8l5.4 17.4h-2.5l-1.2-4.6h-6.2l-1.2 4.6h-2.5l5.4-17.5Zm9.2-.1h13.3v2h-5.4v15.5h-2.4V115h-5.5v-2Zm16.2 0h10.4v2h-8v4.7h7.6v2H438v6.8h8.2v2h-10.6V113Zm17.3 13.3h3.7v3l-2.6 5.1h-2.4l1.3-5v-3.1ZM267 152.5l-2.5 9h5l-2.5-9Zm-1.4-2h2.9l5.3 17.4h-2.4l-1.3-4.6h-6.2l-1.2 4.6h-2.5l5.4-17.5Zm21.2 16.8-1.8.7a8 8 0 0 1-2 .2c-2.3 0-4-.8-5.3-2.3a10.7 10.7 0 0 1-1.8-6.7c0-2.9.6-5.1 1.8-6.7 1.3-1.6 3-2.4 5.3-2.4a8 8 0 0 1 3.8 1v2.4a6.1 6.1 0 0 0-3.8-1.5c-1.6 0-2.7.6-3.5 1.8a10 10 0 0 0-1.2 5.4c0 2.4.4 4.1 1.2 5.3a4 4 0 0 0 3.5 1.8 5 5 0 0 0 2-.4 6 6 0 0 0 1.8-1v2.4Zm14.5 0-1.9.7a8 8 0 0 1-2 .2c-2.3 0-4-.8-5.2-2.3a10.7 10.7 0 0 1-1.9-6.7c0-2.9.6-5.1 1.9-6.7 1.2-1.6 3-2.4 5.2-2.4a8 8 0 0 1 3.9 1v2.4a6.1 6.1 0 0 0-3.9-1.5 4 4 0 0 0-3.5 1.8 10 10 0 0 0-1.1 5.4c0 2.4.4 4.1 1.1 5.3a4 4 0 0 0 3.5 1.8c.7 0 1.4-.1 2-.4a6 6 0 0 0 1.9-1v2.4Zm4.1-16.9h10.4v2h-8v4.7h7.7v2h-7.7v6.8h8.2v2h-10.6v-17.5Zm24 .6v2.4a10 10 0 0 0-2.1-1c-.7-.3-1.5-.4-2.2-.4a4 4 0 0 0-2.6.8c-.7.5-1 1.2-1 2.1 0 .8.2 1.4.6 1.8.4.4 1.2.7 2.4 1l1.2.3c1.7.4 2.9 1 3.6 1.8.8.8 1.2 2 1.2 3.3 0 1.7-.6 3-1.6 3.8-1 1-2.5 1.3-4.5 1.3a12.6 12.6 0 0 1-5-1v-2.5c1 .5 1.8 1 2.6 1.2.8.3 1.6.4 2.4.4 1.2 0 2.1-.2 2.8-.8.7-.5 1-1.3 1-2.2 0-.9-.2-1.6-.7-2-.5-.5-1.2-.8-2.4-1.1l-1.2-.3a7 7 0 0 1-3.6-1.6 4 4 0 0 1-1-3c0-1.6.4-2.9 1.5-3.8a6 6 0 0 1 4.2-1.4c.7 0 1.4 0 2 .2l2.4.7Zm14.5 0v2.4c-.7-.4-1.4-.8-2.2-1-.7-.3-1.4-.4-2.2-.4-1 0-2 .3-2.6.8-.6.5-1 1.2-1 2.1 0 .8.2 1.4.7 1.8.4.4 1.2.7 2.3 1l1.3.3c1.6.4 2.8 1 3.6 1.8a5 5 0 0 1 1.1 3.3c0 1.7-.5 3-1.5 3.8-1 1-2.6 1.3-4.5 1.3a12.6 12.6 0 0 1-5-1v-2.5c.9.5 1.7 1 2.5 1.2.8.3 1.6.4 2.5.4 1.2 0 2-.2 2.7-.8.7-.5 1-1.3 1-2.2 0-.9-.2-1.6-.7-2-.4-.5-1.2-.8-2.3-1.1l-1.3-.3a7 7 0 0 1-3.5-1.6 4 4 0 0 1-1.1-3c0-1.6.5-2.9 1.6-3.8a6 6 0 0 1 4.1-1.4c.7 0 1.4 0 2.1.2l2.4.7Zm27.6 8.2c0-2.6-.2-4.4-.7-5.5a2.7 2.7 0 0 0-2.6-1.7c-1.2 0-2.1.6-2.6 1.7-.6 1-.8 2.9-.8 5.5 0 2.5.2 4.4.8 5.5a2.7 2.7 0 0 0 2.6 1.6c1.2 0 2-.5 2.6-1.6.5-1.1.7-3 .7-5.5Zm2.5 0c0 3-.5 5.3-1.4 6.8a4.9 4.9 0 0 1-4.4 2.2c-2 0-3.5-.7-4.5-2.2-1-1.5-1.4-3.8-1.4-6.8s.5-5.4 1.4-6.8c1-1.6 2.5-2.3 4.5-2.3s3.4.7 4.4 2.3c1 1.4 1.4 3.7 1.4 6.8Zm10.3.4a3 3 0 0 1 1.5 1c.5.4 1 1.2 1.7 2.5l2.3 4.8h-2.5l-2.1-4.4a7 7 0 0 0-1.6-2.4 3 3 0 0 0-1.9-.6h-2.3v7.4h-2.3v-17.5h4.8c2 0 3.4.4 4.5 1.3 1 .9 1.5 2.1 1.5 3.8a4 4 0 0 1-1 2.8c-.6.7-1.5 1.2-2.6 1.3Zm-4.9-7.2v6.2h2.6c1.2 0 2-.3 2.6-.8.5-.5.8-1.3.8-2.3 0-1-.3-1.8-.9-2.4-.6-.5-1.4-.7-2.6-.7h-2.5Zm30 13.6c2 0 3.4-.5 4.2-1.5.8-1 1.1-2.8 1.1-5.3 0-2.6-.3-4.4-1.1-5.4s-2.2-1.4-4.2-1.4h-1.1V166h1Zm0-15.6c2.7 0 4.7.7 6 2.1 1.2 1.5 1.8 3.7 1.8 6.7s-.6 5.2-1.9 6.6c-1.2 1.4-3.2 2.1-5.9 2.1H406v-17.5h3.5Zm11.6 0h9.8v2h-3.7v13.5h3.7v2h-9.7v-2h3.7v-13.5H421v-2Zm24 .6v2.4a10 10 0 0 0-2.1-1c-.7-.3-1.5-.4-2.2-.4a4 4 0 0 0-2.6.8c-.7.5-1 1.2-1 2.1 0 .8.2 1.4.6 1.8.4.4 1.2.7 2.4 1l1.2.3c1.7.4 2.9 1 3.6 1.8.8.8 1.1 2 1.1 3.3 0 1.7-.5 3-1.5 3.8-1 1-2.5 1.3-4.5 1.3a12.6 12.6 0 0 1-5-1v-2.5c1 .5 1.8 1 2.6 1.2.8.3 1.6.4 2.4.4 1.2 0 2.1-.2 2.8-.8.7-.5 1-1.3 1-2.2 0-.9-.3-1.6-.7-2-.5-.5-1.3-.8-2.4-1.1l-1.3-.3a7 7 0 0 1-3.5-1.6 4 4 0 0 1-1-3c0-1.6.4-2.9 1.5-3.8a6 6 0 0 1 4.2-1.4c.6 0 1.4 0 2 .2l2.4.7Zm9.9 1.5-2.5 9h5l-2.5-9Zm-1.5-2h2.9l5.3 17.4h-2.4l-1.3-4.6h-6.1l-1.3 4.6h-2.4l5.3-17.5Zm13 8.5v7h2.8c1.4 0 2.4-.3 3-.8.5-.4.8-1.2.8-2.3 0-1.5-.3-2.5-1-3-.5-.6-1.5-.8-2.8-.8h-2.8Zm0-6.6v4.8h2.8c1 0 2-.3 2.4-.7.6-.4.8-1 .8-1.7 0-.8-.2-1.5-.7-1.9-.5-.4-1.4-.5-2.5-.5h-2.8Zm-2.4-2h5.2c1.8 0 3.2.4 4.1 1.2a4 4 0 0 1 1.5 3.2c0 .8-.3 1.5-.8 2.1a4 4 0 0 1-2.3 1.2 4 4 0 0 1 2.7 1.5c.7.7 1 2 1 3.5 0 1.6-.5 2.8-1.6 3.6-1 .8-2.6 1.2-4.6 1.2H464v-17.5Zm15 0h2.4V166h8.5v2H479v-17.5Zm14.3 0h10.4v2h-8v4.7h7.6v2h-7.6v6.8h8.2v2h-10.6v-17.5Zm-233 37.4h13.4v2h-5.5v15.5h-2.4v-15.5h-5.5v-2Zm15.5 0h2.4v6.7h6.5v-6.7h2.4v17.5h-2.4v-8.8h-6.5v8.8h-2.4v-17.5Zm15.2 0h9.8v2H297v13.5h3.7v2H291v-2h3.7v-13.5H291v-2Zm24 .6v2.4c-.7-.4-1.4-.8-2.2-1-.7-.3-1.4-.4-2.2-.4-1 0-2 .3-2.6.8-.6.5-1 1.2-1 2.1 0 .8.2 1.4.7 1.8.4.4 1.2.7 2.3 1l1.3.3c1.6.4 2.8 1 3.6 1.8a5 5 0 0 1 1.1 3.3c0 1.7-.5 3-1.5 3.8-1 1-2.6 1.3-4.5 1.3a12.6 12.6 0 0 1-5-1V202c.9.5 1.7 1 2.5 1.2.8.3 1.6.4 2.5.4 1.2 0 2-.2 2.7-.8.7-.5 1-1.3 1-2.2 0-.9-.2-1.6-.7-2-.4-.5-1.2-.8-2.3-1.1l-1.3-.3a7 7 0 0 1-3.5-1.6 4 4 0 0 1-1.1-3c0-1.6.5-2.9 1.6-3.8a6 6 0 0 1 4.1-1.4c.7 0 1.4 0 2.1.2l2.4.7Zm22.1 15c2 0 3.4-.5 4.2-1.5.8-1 1.2-2.8 1.2-5.3 0-2.6-.4-4.4-1.2-5.4-.8-1-2.2-1.4-4.2-1.4h-1v13.6h1Zm.1-15.6c2.7 0 4.6.7 5.9 2.1 1.3 1.5 1.9 3.7 1.9 6.7s-.6 5.2-1.9 6.6c-1.3 1.4-3.2 2.1-5.9 2.1h-3.6v-17.5h3.6Zm11.6 0h10.4v2h-8v4.7h7.6v2h-7.6v6.8h8.2v2h-10.6v-17.5Zm19.4 15.5 4-15.5h2.5l-5.1 17.5h-2.9l-5-17.5h2.4l4 15.5Zm9.5-15.5h9.8v2h-3.7v13.5h3.7v2h-9.8v-2h3.7v-13.5h-3.7v-2Zm24.7 16.9-1.8.7a8 8 0 0 1-2 .2c-2.3 0-4-.8-5.3-2.3a10.7 10.7 0 0 1-1.8-6.7c0-2.9.6-5.1 1.8-6.7 1.3-1.6 3-2.4 5.2-2.4a8 8 0 0 1 4 1v2.4a6.1 6.1 0 0 0-4-1.5c-1.5 0-2.6.6-3.4 1.8a10 10 0 0 0-1.2 5.4c0 2.4.4 4.1 1.2 5.3a4 4 0 0 0 3.4 1.8c.7 0 1.4-.1 2-.4a6 6 0 0 0 2-1v2.4Zm4.2-16.9H417v2h-8v4.7h7.6v2H409v6.8h8.2v2h-10.6v-17.5Zm16.9 12.7h4.8v4.8h-4.8z"/><path fill="#fff" fill-rule="nonzero" d="M8 141.7v7.7h2.2c1.6 0 2.9-.3 3.6-.8.6-.6 1-1.6 1-3s-.4-2.4-1-3c-.7-.6-2-.9-3.6-.9H8Zm-5.2-4.3H10c3.6 0 6.2.6 7.8 2 1.6 1.2 2.4 3.3 2.4 6.2 0 2.9-.8 5-2.4 6.2-1.6 1.3-4.2 2-7.8 2H8v9.8H2.8v-26.2Zm40.7 13.8c.5.1 1 .3 1.3.7.4.4.9 1.2 1.4 2.3l4.8 9.4h-5.7l-3.6-7.4c-.9-2-2-3-3.2-3h-1.7v10.4h-5.2v-26.2h7.5c3.4 0 5.8.6 7.3 1.8 1.5 1.2 2.2 3 2.2 5.8 0 1.8-.4 3.2-1.3 4.3a7 7 0 0 1-3.8 2Zm-6.7-9.5v7.2h2.5c1.4 0 2.4-.3 3-.8.6-.6 1-1.5 1-2.8 0-1.3-.4-2.2-1-2.8-.6-.5-1.6-.8-3-.8h-2.5Zm32.6-.2c-1.3 0-2.3.8-2.9 2.2-.6 1.4-.9 3.7-.9 6.8 0 3.1.3 5.4.9 6.8.6 1.4 1.6 2.2 3 2.2 1.2 0 2.2-.8 2.8-2.2.6-1.4 1-3.7 1-6.8 0-3.1-.4-5.4-1-6.8-.6-1.4-1.6-2.2-2.9-2.2Zm-9.2 9c0-4.5.8-7.9 2.3-10.1a7.7 7.7 0 0 1 7-3.5c3 0 5.2 1.1 6.8 3.5 1.6 2.2 2.3 5.6 2.3 10.1s-.7 7.9-2.3 10.2a7.8 7.8 0 0 1-6.9 3.4c-3 0-5.3-1.1-6.9-3.4a17.8 17.8 0 0 1-2.3-10.2Zm41.1 13.1H96V142h-6.7v-4.5H108v4.5h-6.7v21.7Zm26.7-22.1c-1.3 0-2.3.8-3 2.2-.5 1.4-.8 3.7-.8 6.8 0 3.1.3 5.4.9 6.8.6 1.4 1.6 2.2 2.9 2.2 1.3 0 2.3-.8 2.9-2.2.6-1.4.9-3.7.9-6.8 0-3.1-.3-5.4-.9-6.8-.6-1.4-1.6-2.2-3-2.2Zm-9.2 9c0-4.5.7-7.9 2.3-10.1a7.7 7.7 0 0 1 6.9-3.5c3 0 5.3 1.1 6.9 3.5 1.5 2.2 2.3 5.6 2.3 10.1s-.8 7.9-2.3 10.2a7.8 7.8 0 0 1-7 3.4c-3 0-5.2-1.1-6.8-3.4a17.8 17.8 0 0 1-2.3-10.2Zm46.6 12.4a12 12 0 0 1-5.4 1.3c-3.5 0-6.2-1.2-8-3.6a15.8 15.8 0 0 1-2.9-10.1c0-4.4 1-7.8 2.8-10.1 1.9-2.4 4.6-3.5 8.1-3.5a12.6 12.6 0 0 1 5.4 1.3v5.7c-.9-.8-1.7-1.4-2.5-1.8a6 6 0 0 0-2.6-.6 5 5 0 0 0-4.4 2.3c-.9 1.5-1.4 3.8-1.4 6.7 0 3 .5 5.2 1.4 6.7a5 5 0 0 0 4.4 2.3c.9 0 1.7-.2 2.6-.6.8-.4 1.6-1 2.5-1.8v5.8Zm21.2-21.4c-1.4 0-2.3.8-3 2.2-.6 1.4-.9 3.7-.9 6.8 0 3.1.3 5.4 1 6.8.6 1.4 1.5 2.2 2.9 2.2 1.3 0 2.3-.8 2.9-2.2.6-1.4.9-3.7.9-6.8 0-3.1-.3-5.4-1-6.8-.5-1.4-1.5-2.2-2.8-2.2Zm-9.3 9c0-4.5.8-7.9 2.4-10.1a7.7 7.7 0 0 1 6.9-3.5c3 0 5.3 1.1 6.8 3.5 1.6 2.2 2.4 5.6 2.4 10.1s-.8 7.9-2.4 10.2a7.8 7.8 0 0 1-6.8 3.4c-3.1 0-5.4-1.1-7-3.4a17.8 17.8 0 0 1-2.3-10.2Zm31.7 13.1v-26.2h5.2V159h11v4.6H209ZM14.5 184.2v2.7a9 9 0 0 0-2-.8l-2.1-.3a5 5 0 0 0-4.3 2.1c-1 1.4-1.4 3.5-1.4 6.3.4-1 1-1.7 2-2.3.7-.5 1.7-.8 2.8-.8 2 0 3.7.7 4.9 2 1.1 1.3 1.7 3.1 1.7 5.5s-.6 4.2-1.8 5.5a6.4 6.4 0 0 1-5 2c-2.6 0-4.4-1-5.6-2.8a16.3 16.3 0 0 1-1.7-8.6c0-3.7.7-6.5 2-8.4 1.5-2 3.6-3 6.3-3a10.5 10.5 0 0 1 4.2 1Zm-5.3 9.3c-1.2 0-2.2.4-3 1.3-.7 1-1 2.2-1 3.8a6 6 0 0 0 1 3.8c.8.9 1.8 1.3 3 1.3 1.4 0 2.4-.4 3-1.3.7-.8 1-2.1 1-3.8 0-1.7-.3-3-1-3.9-.6-.8-1.6-1.2-3-1.2Zm23.6-9.8H44v2.5h-8.4v5.4l1.3-.3 1.3-.2c2.2 0 4 .7 5.4 2 1.3 1.4 2 3.2 2 5.5s-.7 4.1-2.1 5.4a7.9 7.9 0 0 1-5.7 2 17.4 17.4 0 0 1-5.8-.9v-3c.9.5 1.8.8 2.7 1 .9.3 1.8.4 2.8.4 1.6 0 2.9-.4 3.8-1.3.8-.8 1.3-2 1.3-3.6s-.5-2.8-1.4-3.6a5.3 5.3 0 0 0-3.8-1.4 10 10 0 0 0-4.5 1.1v-11Zm35.8-.3c2.4 0 4.1 1 5.3 2.9 1.2 1.9 1.8 4.7 1.8 8.4a16 16 0 0 1-1.8 8.5 5.9 5.9 0 0 1-5.3 2.8 6 6 0 0 1-5.2-2.8 16 16 0 0 1-1.8-8.5c0-3.7.6-6.5 1.8-8.4 1.1-2 2.9-2.9 5.2-2.9Zm0 20.3c1.4 0 2.4-.8 3.1-2.2a27.3 27.3 0 0 0 .7-11.1l-7 10.9c.8 1.6 1.9 2.4 3.2 2.4Zm0-18c-1.3 0-2.4.8-3 2.3a26.1 26.1 0 0 0-.8 10.6l6.8-10.9c-.7-1.3-1.7-2-3-2Zm26.3 17.4h10v2.5H91.6v-2.5l4.8-5 2.9-3.2c1-1.2 1.6-2.2 2-2.9.3-.7.4-1.5.4-2.3 0-1.2-.3-2.1-1-2.8a4 4 0 0 0-3-1c-.9 0-1.8 0-2.8.4-1 .3-2 .8-3 1.5v-3c1-.5 2-.9 2.9-1 1-.3 1.9-.5 2.9-.5 2 0 3.8.6 5.1 1.8 1.3 1.1 2 2.6 2 4.4 0 1-.2 1.9-.7 2.8-.4 1-1.1 2-2 3.1a112.5 112.5 0 0 1-7.2 7.7Zm27.3-9.5h15v3h-15zm35.8-7.3-3 11.2h6.2l-3.2-11.2Zm-1.8-2.6h3.6l6.7 22h-3l-1.6-5.8h-7.7l-1.6 5.7h-3l6.6-21.9Zm33.4 2.7-7 11.6h7v-11.6Zm-.5-2.7h3.4V198h3v2.4h-3v5.2h-3v-5.2h-9.2v-2.8l8.8-13.9Zm30.3 2.7-6.9 11.6h6.9v-11.6Zm-.5-2.7h3.4V198h3v2.4h-3v5.2h-2.9v-5.2h-9.3v-2.8l8.8-13.9Z"/></svg>